<svg width="120" height="40" viewBox="0 0 120 40" fill="none" xmlns="http://www.w3.org/2000/svg">
  <rect x="0.5" y="0.5" width="119" height="39" rx="7.5" stroke="#E5E7EB"/>
  <path d="M25 20C25 22.7614 22.7614 25 20 25C17.2386 25 15 22.7614 15 20C15 17.2386 17.2386 15 20 15C21.1046 15 22.1367 15.3104 23.0104 15.8542L21.5962 17.2684C21.1091 16.9794 20.5556 16.8125 19.9688 16.8125C18.2239 16.8125 16.8125 18.2239 16.8125 19.9688C16.8125 21.7136 18.2239 23.125 19.9688 23.125C21.4797 23.125 22.7396 22.0703 23.0208 20.6875H20V18.875H24.875C24.9583 19.2396 25 19.6146 25 20Z" fill="#4285F4"/>
  <text x="35" y="25" font-family="Arial, sans-serif" font-size="14" fill="#6B7280">Gemma 3n</text>
</svg>